<?xml version="1.0" encoding="UTF-8" standalone="no"?>
<!DOCTYPE svg PUBLIC "-//W3C//DTD SVG 1.1//EN" "http://www.w3.org/Graphics/SVG/1.1/DTD/svg11.dtd">
<!-- Created with Vectornator (http://vectornator.io/) -->
<svg height="100%" stroke-miterlimit="10" style="fill-rule:nonzero;clip-rule:evenodd;stroke-linecap:round;stroke-linejoin:round;" version="1.1" viewBox="0 0 64 64" width="100%" xml:space="preserve" xmlns="http://www.w3.org/2000/svg" xmlns:vectornator="http://vectornator.io" xmlns:xlink="http://www.w3.org/1999/xlink">
<defs/>
<clipPath id="ArtboardFrame">
<rect height="64" width="64" x="0" y="0"/>
</clipPath>
<g clip-path="url(#ArtboardFrame)" id="Layer-1" vectornator:layerName="Layer 1">
<path d="M2.5 0L2.5 1.80718C2.5 2.05174 2.30174 2.25 2.05718 2.25L-3.55271e-15 2.25L-3.55271e-15 5.5C2.0904 5.5 3.78125 7.19085 3.78125 9.28125C3.78125 11.3716 2.0904 13.0625-3.55271e-15 13.0625L-3.55271e-15 16.6875C2.0904 16.6875 3.78125 18.3784 3.78125 20.4688C3.78125 22.5591 2.0904 24.25-3.55271e-15 24.25L-3.55271e-15 28.2188C2.0904 28.2188 3.78125 29.9096 3.78125 32C3.78125 34.0904 2.0904 35.7812-3.55271e-15 35.7812L-3.55271e-15 39.9688C2.0904 39.9688 3.78125 41.6908 3.78125 43.7812C3.78125 45.8717 2.0904 47.5625-3.55271e-15 47.5625L-3.55271e-15 51.125C2.0904 51.125 3.78125 52.8158 3.78125 54.9062C3.78125 56.9967 2.0904 58.6875-3.55271e-15 58.6875L-3.55271e-15 61.6875L2.03125 61.6875C2.27581 61.6875 2.5 61.8804 2.5 62.125L2.5 64L5.40625 64C5.41999 61.9245 7.10783 60.2536 9.1875 60.25C11.2673 60.2465 12.9482 61.9243 12.9687 64L16.5938 64C16.6075 61.9245 18.2953 60.2536 20.375 60.25C22.4654 60.2464 24.1527 61.9096 24.1562 64L28.125 64C28.1214 61.9096 29.8158 60.2223 31.9063 60.2188C33.9966 60.2152 35.6839 61.9096 35.6875 64L39.875 64C39.8714 61.9096 41.5971 60.1911 43.6875 60.1875C45.7779 60.1839 47.4652 61.8784 47.4688 63.9688C47.4688 63.9795 47.4688 63.9893 47.4688 64L51.0313 64C51.0311 63.9894 51.0313 63.9794 51.0313 63.9688C51.0277 61.8784 52.7221 60.1911 54.8125 60.1875C56.9029 60.1839 58.5902 61.8784 58.5938 63.9688C58.5938 63.9795 58.5938 63.9893 58.5938 64L61.6875 64L61.6875 62.1303C61.6875 61.8858 61.8858 61.6875 62.1303 61.6875L64 61.6875L64 58.5938C61.9096 58.5938 60.2187 56.9029 60.2187 54.8125C60.2187 52.7221 61.9096 51.0312 64 51.0312L64 47.4688C61.9096 47.4688 60.2187 45.7779 60.2187 43.6875C60.2187 41.5971 61.9096 39.875 64 39.875L64 35.6875C61.9096 35.6875 60.2187 33.9967 60.2187 31.9063C60.2187 29.8159 61.9096 28.125 64 28.125L64 24.1562C61.9096 24.1562 60.2187 22.4654 60.2187 20.375C60.2187 18.2846 61.9096 16.5938 64 16.5938L64 12.9687C61.9096 12.9687 60.2187 11.2779 60.2187 9.1875C60.2187 7.0971 61.9096 5.40625 64 5.40625L64 2.25L61.9428 2.25C61.6983 2.25 61.5 2.05174 61.5 1.80718L61.5 0L58.5938 0C58.58 2.07552 56.8922 3.74644 54.8125 3.75C52.7327 3.75356 51.0518 2.07572 51.0313 0L47.4688 0C47.455 2.07552 45.7672 3.74644 43.6875 3.75C41.5971 3.75358 39.8786 2.0904 39.875 0L35.6875 0C35.6911 2.0904 33.9966 3.77767 31.9063 3.78125C29.8159 3.78483 28.1286 2.0904 28.125 0L24.1562 0C24.1598 2.0904 22.4654 3.80892 20.375 3.8125C18.2846 3.81608 16.5973 2.12165 16.5938 0.03125C16.5937 0.0205242 16.5937 0.0107044 16.5938 0L12.9687 0C12.9689 0.0106169 12.9687 0.0206124 12.9687 0.03125C12.9723 2.12165 11.2779 3.80892 9.1875 3.8125C7.0971 3.81608 5.40983 2.12165 5.40625 0.03125C5.40623 0.0205242 5.40618 0.0107044 5.40625 0L2.5 0ZM9 7.78125L55 7.78125C55.6678 7.78125 56.2188 8.33221 56.2188 9L56.2188 55C56.2187 55.6678 55.6678 56.2188 55 56.2188L9 56.2188C8.33221 56.2187 7.78125 55.6678 7.78125 55C7.78125 53.5623 7.78125 10.4377 7.78125 9C7.78125 8.33221 8.33221 7.78125 9 7.78125ZM10.2187 10.2188C10.2187 12.4226 10.2187 29.7641 10.2187 41.8329L53.7713 41.4524L53.7812 10.2188L10.2187 10.2188ZM10.2187 41.0938C10.2187 46.0956 10.2187 52.7915 10.2187 53.7812L53.7812 53.7812L53.7812 41.0938L10.2187 41.0938Z" fill="#b98b54" fill-rule="nonzero" opacity="1" stroke="none" vectornator:layerName="Curve 1"/>
</g>
<g id="Layer-2" vectornator:layerName="Layer 2">
<path d="M18.9933 42.0599C16.0113 38.6328 17.8067 32.0583 17.3736 27.5104C17.2519 26.2328 17.3 24.9092 17.0894 23.6457C17.0471 23.3921 16.7076 23.053 16.8052 23.0205C19.617 22.0832 25.4328 21.579 25.7282 25.8622C25.878 28.0357 23.2152 30.4254 21.5793 31.4887C21.0759 31.8159 20.5066 32.2062 19.9311 32.3981C19.6788 32.4822 18.9474 32.6429 19.1354 32.4549C21.5726 30.0177 27.1915 30.6168 29.1382 33.2506C32.4784 37.7698 21.8345 45.325 18.9933 42.0599Z" fill="none" opacity="1" stroke="#ffffff" stroke-linecap="round" stroke-linejoin="round" stroke-width="2.62947" vectornator:layerName="Curve 1"/>
<path d="M36.4129 41.7189C36.4297 41.7691 36.6506 40.1896 36.7539 39.6728C37.0506 38.1895 37.2503 36.7525 37.3223 35.2398C37.4021 33.564 37.2373 23.1622 37.6633 22.4521C37.862 22.1209 38.6091 23.9382 38.6295 23.9867C39.1842 25.3041 39.8058 26.5472 40.3913 27.8514C41.7809 30.9464 43.4085 34.0594 44.597 37.229C45.0207 38.3587 45.3498 39.5127 45.7905 40.639C45.7909 40.6399 46.2259 41.4988 46.3021 41.321C47.4755 38.5829 46.8197 30.5698 46.9841 27.283C47.014 26.6847 47.2282 21.1394 47.2114 21.145" fill="none" opacity="1" stroke="#ffffff" stroke-linecap="round" stroke-linejoin="round" stroke-width="2.62947" vectornator:layerName="Curve 2"/>
</g>
<g id="Layer-1-copy" vectornator:layerName="Layer 1 copy" visibility="hidden">
<path d="M2.5 0L2.5 1.80718C2.5 2.05174 2.30174 2.25 2.05718 2.25L0 2.25L0 5.5C2.0904 5.5 3.78125 7.19085 3.78125 9.28125C3.78125 11.3716 2.0904 13.0625 0 13.0625L0 16.6875C2.0904 16.6875 3.78125 18.3784 3.78125 20.4688C3.78125 22.5591 2.0904 24.25 0 24.25L0 28.2188C2.0904 28.2188 3.78125 29.9096 3.78125 32C3.78125 34.0904 2.0904 35.7812 0 35.7812L0 39.9688C2.0904 39.9688 3.78125 41.6908 3.78125 43.7812C3.78125 45.8717 2.0904 47.5625 0 47.5625L0 51.125C2.0904 51.125 3.78125 52.8158 3.78125 54.9062C3.78125 56.9967 2.0904 58.6875 0 58.6875L0 61.6875L2.03125 61.6875C2.27581 61.6875 2.5 61.8804 2.5 62.125L2.5 64L5.40625 64C5.41999 61.9245 7.10783 60.2536 9.1875 60.25C11.2673 60.2465 12.9482 61.9243 12.9687 64L16.5938 64C16.6075 61.9245 18.2953 60.2536 20.375 60.25C22.4654 60.2464 24.1527 61.9096 24.1562 64L28.125 64C28.1214 61.9096 29.8158 60.2223 31.9063 60.2188C33.9966 60.2152 35.6839 61.9096 35.6875 64L39.875 64C39.8714 61.9096 41.5971 60.1911 43.6875 60.1875C45.7779 60.1839 47.4652 61.8784 47.4688 63.9688C47.4688 63.9795 47.4688 63.9893 47.4688 64L51.0312 64C51.0311 63.9894 51.0313 63.9794 51.0312 63.9688C51.0277 61.8784 52.7221 60.1911 54.8125 60.1875C56.9029 60.1839 58.5902 61.8784 58.5938 63.9688C58.5938 63.9795 58.5938 63.9893 58.5938 64L61.6875 64L61.6875 62.1303C61.6875 61.8858 61.8858 61.6875 62.1303 61.6875L64 61.6875L64 58.5938C61.9096 58.5938 60.2187 56.9029 60.2188 54.8125C60.2187 52.7221 61.9096 51.0312 64 51.0312L64 47.4688C61.9096 47.4688 60.2187 45.7779 60.2188 43.6875C60.2187 41.5971 61.9096 39.875 64 39.875L64 35.6875C61.9096 35.6875 60.2187 33.9967 60.2188 31.9063C60.2187 29.8159 61.9096 28.125 64 28.125L64 24.1562C61.9096 24.1562 60.2187 22.4654 60.2188 20.375C60.2187 18.2846 61.9096 16.5938 64 16.5938L64 12.9687C61.9096 12.9687 60.2187 11.2779 60.2188 9.1875C60.2187 7.0971 61.9096 5.40625 64 5.40625L64 2.25L61.9428 2.25C61.6983 2.25 61.5 2.05174 61.5 1.80718L61.5 0L58.5938 0C58.58 2.07552 56.8922 3.74644 54.8125 3.75C52.7327 3.75356 51.0518 2.07572 51.0312 0L47.4688 0C47.455 2.07552 45.7672 3.74644 43.6875 3.75C41.5971 3.75358 39.8786 2.0904 39.875 0L35.6875 0C35.6911 2.0904 33.9966 3.77767 31.9063 3.78125C29.8159 3.78483 28.1286 2.0904 28.125 0L24.1562 0C24.1598 2.0904 22.4654 3.80892 20.375 3.8125C18.2846 3.81608 16.5973 2.12165 16.5938 0.03125C16.5937 0.0205242 16.5937 0.0107044 16.5938 0L12.9687 0C12.9689 0.0106169 12.9687 0.0206124 12.9687 0.03125C12.9723 2.12165 11.2779 3.80892 9.1875 3.8125C7.0971 3.81608 5.40983 2.12165 5.40625 0.03125C5.40623 0.0205242 5.40618 0.0107044 5.40625 0L2.5 0ZM9 7.78125L55 7.78125C55.6678 7.78125 56.2188 8.33221 56.2188 9L56.2188 55C56.2187 55.6678 55.6678 56.2188 55 56.2188L9 56.2188C8.33221 56.2187 7.78125 55.6678 7.78125 55C7.78125 53.5623 7.78125 10.4377 7.78125 9C7.78125 8.33221 8.33221 7.78125 9 7.78125ZM10.2188 10.2188C10.2188 12.4226 10.2188 26.3999 10.2188 38.4688L53.7812 38.4688L53.7812 10.2188L10.2188 10.2188ZM10.2188 41.0938C10.2188 46.0956 10.2188 52.7915 10.2188 53.7812L53.7812 53.7812L53.7812 41.0938L10.2188 41.0938Z" fill="#b98b54" fill-rule="nonzero" opacity="1" stroke="none" vectornator:layerName="Curve 1"/>
</g>
<g id="Layer-2-copy" vectornator:layerName="Layer 2 copy" visibility="hidden">
<path d="M20.1926 33.4969C17.4855 30.3858 19.1154 24.4175 18.7222 20.2889C18.6118 19.1292 18.6554 17.9276 18.4642 16.7806C18.4259 16.5504 18.1176 16.2426 18.2063 16.2131C20.7587 15.3622 26.0383 14.9045 26.3065 18.7927C26.4425 20.7658 24.0252 22.9352 22.5401 23.9005C22.0832 24.1975 21.5664 24.5518 21.0439 24.726C20.8149 24.8023 20.1509 24.9483 20.3216 24.7776C22.5341 22.5651 27.6349 23.109 29.4021 25.4999C32.4343 29.6023 22.7718 36.4609 20.1926 33.4969Z" fill="none" opacity="1" stroke="#ffffff" stroke-linecap="round" stroke-linejoin="round" stroke-width="2.62947" vectornator:layerName="Curve 1"/>
<path d="M36.006 33.1873C36.0213 33.233 36.2218 31.799 36.3156 31.33C36.5849 29.9834 36.7661 28.6789 36.8315 27.3057C36.904 25.7844 36.7544 16.3417 37.1411 15.6971C37.3215 15.3964 37.9997 17.0462 38.0182 17.0901C38.5218 18.2861 39.086 19.4146 39.6176 20.5985C40.8791 23.4082 42.3565 26.2341 43.4355 29.1114C43.8201 30.137 44.1189 31.1846 44.519 32.207C44.5193 32.2079 44.9142 32.9875 44.9833 32.8262C46.0486 30.3405 45.4532 23.0663 45.6024 20.0826C45.6296 19.5394 45.8241 14.5054 45.8088 14.5105" fill="none" opacity="1" stroke="#ffffff" stroke-linecap="round" stroke-linejoin="round" stroke-width="2.62947" vectornator:layerName="Curve 2"/>
</g>
<g id="Layer-3" vectornator:layerName="Layer 3" visibility="hidden">
<g fill="#ffffff" opacity="1" stroke="none" vectornator:layerName="Text 1">
<path d="M14.4403 48.9425C14.9108 48.9425 15.2392 48.8267 15.4255 48.5952C15.6118 48.3637 15.705 47.9454 15.705 47.3403C15.705 46.7296 15.6123 46.3085 15.4269 46.077C15.2415 45.8455 14.9126 45.7297 14.4403 45.7297L14.1747 45.7297L14.1747 48.9425L14.4403 48.9425ZM14.4514 45.2704C15.0823 45.2704 15.5472 45.4382 15.8461 45.774C16.145 46.1098 16.2944 46.6318 16.2944 47.3403C16.2944 48.045 16.145 48.5648 15.8461 48.8996C15.5472 49.2345 15.0823 49.4019 14.4514 49.4019L13.6129 49.4019L13.6129 45.2704L14.4514 45.2704Z"/>
<path d="M19.7452 47.5976L19.7452 47.8467L17.5397 47.8467L17.5397 47.8633C17.5249 48.2857 17.6056 48.5892 17.7818 48.7737C17.958 48.9582 18.2066 49.0504 18.5276 49.0504C18.6899 49.0504 18.8597 49.0246 19.0368 48.9729C19.2139 48.9213 19.403 48.8429 19.604 48.7377L19.604 49.2441C19.4103 49.3235 19.2236 49.383 19.0437 49.4226C18.8638 49.4623 18.6899 49.4821 18.522 49.4821C18.0405 49.4821 17.6642 49.3378 17.393 49.049C17.1218 48.7603 16.9862 48.3623 16.9862 47.855C16.9862 47.3606 17.119 46.9658 17.3847 46.6706C17.6504 46.3754 18.0046 46.2278 18.4473 46.2278C18.8421 46.2278 19.1534 46.3616 19.3813 46.6291C19.6091 46.8966 19.7304 47.2194 19.7452 47.5976ZM19.236 47.4482C19.2139 47.2342 19.1359 47.0492 19.0022 46.8934C18.8684 46.7375 18.6761 46.6595 18.4252 46.6595C18.1798 46.6595 17.9778 46.7407 17.8192 46.903C17.6605 47.0654 17.5738 47.248 17.559 47.451L19.236 47.4482Z"/>
<path d="M20.3346 46.3025L20.8632 46.3025L21.7625 48.9038L22.6646 46.3025L23.1932 46.3025L22.0918 49.4019L21.436 49.4019L20.3346 46.3025Z"/>
<path d="M26.5692 47.5976L26.5692 47.8467L24.3637 47.8467L24.3637 47.8633C24.349 48.2857 24.4297 48.5892 24.6059 48.7737C24.7821 48.9582 25.0307 49.0504 25.3517 49.0504C25.514 49.0504 25.6837 49.0246 25.8608 48.9729C26.0379 48.9213 26.227 48.8429 26.4281 48.7377L26.4281 49.2441C26.2344 49.3235 26.0476 49.383 25.8677 49.4226C25.6879 49.4623 25.514 49.4821 25.3461 49.4821C24.8646 49.4821 24.4883 49.3378 24.2171 49.049C23.9459 48.7603 23.8103 48.3623 23.8103 47.855C23.8103 47.3606 23.9431 46.9658 24.2088 46.6706C24.4744 46.3754 24.8286 46.2278 25.2714 46.2278C25.6662 46.2278 25.9775 46.3616 26.2054 46.6291C26.4332 46.8966 26.5545 47.2194 26.5692 47.5976ZM26.0601 47.4482C26.0379 47.2342 25.96 47.0492 25.8262 46.8934C25.6925 46.7375 25.5002 46.6595 25.2493 46.6595C25.0039 46.6595 24.8019 46.7407 24.6432 46.903C24.4846 47.0654 24.3979 47.248 24.3831 47.451L26.0601 47.4482Z"/>
<path d="M28.8716 48.2811C28.8716 48.5099 28.9136 48.6824 28.9975 48.7986C29.0815 48.9148 29.2055 48.9729 29.3697 48.9729L29.9647 48.9729L29.9647 49.4019L29.3199 49.4019C29.0155 49.4019 28.7798 49.3046 28.6129 49.1099C28.4459 48.9153 28.3624 48.639 28.3624 48.2811L28.3624 45.4779L27.5461 45.4779L27.5461 45.0794L28.8716 45.0794L28.8716 48.2811Z"/>
<path d="M31.9986 46.6595C31.7403 46.6595 31.5448 46.7601 31.412 46.9611C31.2791 47.1622 31.2127 47.4602 31.2127 47.855C31.2127 48.2479 31.2791 48.5454 31.412 48.7474C31.5448 48.9494 31.7403 49.0504 31.9986 49.0504C32.2587 49.0504 32.4552 48.9494 32.588 48.7474C32.7209 48.5454 32.7873 48.2479 32.7873 47.855C32.7873 47.4602 32.7209 47.1622 32.588 46.9611C32.4552 46.7601 32.2587 46.6595 31.9986 46.6595ZM31.9986 46.2278C32.4285 46.2278 32.7573 46.3671 32.9851 46.6457C33.213 46.9243 33.3269 47.3273 33.3269 47.855C33.3269 48.3844 33.2134 48.788 32.9865 49.0657C32.7596 49.3433 32.4303 49.4821 31.9986 49.4821C31.5688 49.4821 31.2404 49.3433 31.0135 49.0657C30.7866 48.788 30.6731 48.3844 30.6731 47.855C30.6731 47.3273 30.7866 46.9243 31.0135 46.6457C31.2404 46.3671 31.5688 46.2278 31.9986 46.2278Z"/>
<path d="M34.7437 49.0117L34.7437 50.5807L34.2318 50.5807L34.2318 46.3025L34.7437 46.3025L34.7437 46.6983C34.8286 46.5451 34.9416 46.4285 35.0827 46.3482C35.2239 46.2679 35.3867 46.2278 35.5712 46.2278C35.9457 46.2278 36.2394 46.3726 36.4525 46.6623C36.6656 46.9519 36.7721 47.3532 36.7721 47.866C36.7721 48.3697 36.6651 48.7649 36.4511 49.0518C36.2371 49.3387 35.9438 49.4821 35.5712 49.4821C35.383 49.4821 35.2183 49.442 35.0772 49.3617C34.9361 49.2815 34.8249 49.1648 34.7437 49.0117ZM36.2381 47.855C36.2381 47.4602 36.1758 47.1622 36.0513 46.9611C35.9267 46.7601 35.7418 46.6595 35.4964 46.6595C35.2492 46.6595 35.062 46.7605 34.9347 46.9625C34.8074 47.1645 34.7437 47.462 34.7437 47.855C34.7437 48.2461 34.8074 48.5431 34.9347 48.746C35.062 48.949 35.2492 49.0504 35.4964 49.0504C35.7418 49.0504 35.9267 48.9499 36.0513 48.7488C36.1758 48.5477 36.2381 48.2498 36.2381 47.855Z"/>
<path d="M38.9887 46.618C39.0514 46.4852 39.1312 46.3869 39.2281 46.3233C39.3249 46.2596 39.4416 46.2278 39.5781 46.2278C39.8272 46.2278 40.0029 46.3242 40.1053 46.517C40.2077 46.7098 40.2589 47.0728 40.2589 47.6059L40.2589 49.4019L39.794 49.4019L39.794 47.6281C39.794 47.1908 39.7695 46.9192 39.7207 46.8131C39.6718 46.707 39.5828 46.654 39.4536 46.654C39.306 46.654 39.205 46.7107 39.1506 46.8242C39.0962 46.9376 39.069 47.2056 39.069 47.6281L39.069 49.4019L38.6041 49.4019L38.6041 47.6281C38.6041 47.1853 38.5778 46.9123 38.5252 46.8089C38.4726 46.7056 38.3781 46.654 38.2416 46.654C38.1069 46.654 38.0133 46.7107 37.9607 46.8242C37.9081 46.9376 37.8818 47.2056 37.8818 47.6281L37.8818 49.4019L37.4197 49.4019L37.4197 46.3025L37.8818 46.3025L37.8818 46.5682C37.9427 46.4575 38.0188 46.3731 38.1101 46.315C38.2014 46.2569 38.3052 46.2278 38.4214 46.2278C38.5616 46.2278 38.6783 46.2601 38.7715 46.3247C38.8647 46.3892 38.9371 46.487 38.9887 46.618Z"/>
<path d="M43.6294 47.5976L43.6294 47.8467L41.4239 47.8467L41.4239 47.8633C41.4092 48.2857 41.4899 48.5892 41.666 48.7737C41.8422 48.9582 42.0908 49.0504 42.4118 49.0504C42.5742 49.0504 42.7439 49.0246 42.921 48.9729C43.0981 48.9213 43.2872 48.8429 43.4883 48.7377L43.4883 49.2441C43.2946 49.3235 43.1078 49.383 42.9279 49.4226C42.748 49.4623 42.5742 49.4821 42.4063 49.4821C41.9248 49.4821 41.5484 49.3378 41.2772 49.049C41.0061 48.7603 40.8705 48.3623 40.8705 47.855C40.8705 47.3606 41.0033 46.9658 41.2689 46.6706C41.5346 46.3754 41.8888 46.2278 42.3316 46.2278C42.7264 46.2278 43.0377 46.3616 43.2655 46.6291C43.4934 46.8966 43.6147 47.2194 43.6294 47.5976ZM43.1202 47.4482C43.0981 47.2342 43.0202 47.0492 42.8864 46.8934C42.7527 46.7375 42.5603 46.6595 42.3094 46.6595C42.0641 46.6595 41.8621 46.7407 41.7034 46.903C41.5447 47.0654 41.458 47.248 41.4433 47.451L43.1202 47.4482Z"/>
<path d="M46.8505 47.4814L46.8505 49.4019L46.3386 49.4019L46.3386 47.4814C46.3386 47.2028 46.2897 46.998 46.1919 46.8671C46.0941 46.7361 45.941 46.6706 45.7325 46.6706C45.4946 46.6706 45.3115 46.755 45.1832 46.9238C45.055 47.0926 44.9909 47.3347 44.9909 47.6502L44.9909 49.4019L44.4817 49.4019L44.4817 46.3025L44.9909 46.3025L44.9909 46.7674C45.0813 46.5903 45.204 46.4561 45.359 46.3648C45.5139 46.2735 45.6975 46.2278 45.9096 46.2278C46.2251 46.2278 46.4608 46.3316 46.6167 46.5391C46.7726 46.7467 46.8505 47.0608 46.8505 47.4814Z"/>
<path d="M49.0533 45.4226L49.0533 46.3025L50.21 46.3025L50.21 46.6983L49.0533 46.6983L49.0533 48.3808C49.0533 48.6095 49.0966 48.7691 49.1833 48.8595C49.27 48.9499 49.4213 48.9951 49.6371 48.9951L50.21 48.9951L50.21 49.4019L49.5873 49.4019C49.2055 49.4019 48.9361 49.3253 48.7793 49.1722C48.6225 49.0191 48.5441 48.7553 48.5441 48.3808L48.5441 46.6983L47.7167 46.6983L47.7167 46.3025L48.5441 46.3025L48.5441 45.4226L49.0533 45.4226Z"/>
</g>
</g>
</svg>
